<svg class="icon__vector" width="32" height="32" viewBox="0 0 32 32" xmlns="http://www.w3.org/2000/svg">
<path d="M16 2.92969L15.1914 4.03516C15.1914 4.03516 13.1703 6.8028 11.1445 10.1367C10.1316 11.8037 9.11599 13.6143 8.33984 15.3203C7.5637 17.0263 7 18.5937 7 20C7 24.9585 11.0415 29 16 29C20.9585 29 25 24.9585 25 20C25 18.5937 24.4363 17.0263 23.6602 15.3203C22.884 13.6143 21.8684 11.8037 20.8555 10.1367C18.8297 6.8028 16.8086 4.03516 16.8086 4.03516L16 2.92969ZM16 6.43359C16.5778 7.24338 17.574 8.59109 19.1445 11.1758C20.1316 12.8003 21.116 14.5574 21.8398 16.1484C22.5637 17.7395 23 19.1973 23 20C23 23.8775 19.8775 27 16 27C12.1225 27 9 23.8775 9 20C9 19.1973 9.4363 17.7395 10.1602 16.1484C10.884 14.5574 11.8684 12.8003 12.8555 11.1758C14.426 8.59109 15.4222 7.24338 16 6.43359ZM13.5 18C11.5 18 11 20 11 20C11 22.761 13.239 25 16 25C18.761 25 21 22.761 21 20C21 20 20.125 21 19 21C16.5 21 15.5 18 13.5 18Z" />
</svg>
