<svg class="icon__vector" fill="white" width="32" height="32" viewBox="0 0 32 32" xmlns="http://www.w3.org/2000/svg">
<path fill-rule="evenodd" clip-rule="evenodd" d="M0 8H19V23H12.874C12.4299 21.2748 10.8638 20 9 20C7.13616 20 5.57006 21.2748 5.12602 23H4V18H2V25H5.12602C5.57006 26.7252 7.13616 28 9 28C10.8638 28 12.4299 26.7252 12.874 25H21.126C21.5701 26.7252 23.1362 28 25 28C26.8638 28 28.4299 26.7252 28.874 25H32V18C32 16.8345 31.6233 15.3333 31.2031 14.0099C30.7739 12.658 30.2602 11.3733 29.9138 10.5939L29.6499 10H21V6H0V8ZM30 18C30 17.1655 29.7101 15.9167 29.2969 14.6151C28.9891 13.6456 28.6337 12.7095 28.3402 12H21V23H21.126C21.5701 21.2748 23.1362 20 25 20C26.8638 20 28.4299 21.2748 28.874 23H30V18ZM9 26C10.1046 26 11 25.1046 11 24C11 22.8954 10.1046 22 9 22C7.89543 22 7 22.8954 7 24C7 25.1046 7.89543 26 9 26ZM25 26C26.1046 26 27 25.1046 27 24C27 22.8954 26.1046 22 25 22C23.8954 22 23 22.8954 23 24C23 25.1046 23.8954 26 25 26Z" />
<path fill-rule="evenodd" clip-rule="evenodd" d="M10 12H1V10H10V12ZM8 16H2V14H8V16Z" />
</svg>
