<svg width="48" height="48" viewBox="0 0 48 48" fill="none" xmlns="http://www.w3.org/2000/svg">
<path d="M45 35C45 37.2109 43.2109 39 41 39H7C4.78906 39 3 37.2109 3 35V13C3 10.7891 4.78906 9 7 9H41C43.2109 9 45 10.7891 45 13V35Z" fill="#3F51B5"/>
<path d="M40 24C40 29.5234 35.5234 34 30 34C24.4766 34 20 29.5234 20 24C20 18.4766 24.4766 14 30 14C35.5234 14 40 18.4766 40 24Z" fill="#FFC107"/>
<path d="M22.0156 30C21.5508 29.3828 21.1523 28.7148 20.8398 28H26.1641C26.4414 27.3633 26.6602 26.6953 26.8008 26H20.2031C20.0703 25.3555 20 24.6875 20 24H27C27 23.3125 26.9297 22.6445 26.8008 22H20.1992C20.3438 21.3047 20.5586 20.6367 20.8398 20H26.1641C25.8516 19.2852 25.4531 18.6172 24.9883 18H22.0156C22.4492 17.4219 22.9453 16.8789 23.4961 16.4062C21.7461 14.9102 19.4805 14 17 14C11.4766 14 7 18.4766 7 24C7 29.5234 11.4766 34 17 34C20.2695 34 23.1602 32.4258 24.9844 30H22.0156Z" fill="#FF3D00"/>
</svg>
