<svg width="48" height="48" viewBox="0 0 48 48" fill="none" xmlns="http://www.w3.org/2000/svg">
<path d="M45 35C45 37.2109 43.2109 39 41 39H7C4.78906 39 3 37.2109 3 35V13C3 10.7891 4.78906 9 7 9H41C43.2109 9 45 10.7891 45 13V35Z" fill="#1565C0"/>
<path d="M15.1875 19L12.5586 26.832C12.5586 26.832 11.8945 23.5195 11.8281 23.1016C10.332 19.6914 8.125 19.8828 8.125 19.8828L10.7266 30V29.9961H13.8867L18.2578 19H15.1875Z" fill="white"/>
<path d="M17.6875 30H20.5586L22.2969 19H19.3906L17.6875 30Z" fill="white"/>
<path d="M38.0078 19H34.9883L30.2773 30H33.1289L33.7188 28.4297H37.3125L37.6172 30H40.2305L38.0078 19ZM34.5117 26.3281L36.0742 22.1719L36.8945 26.3281H34.5117Z" fill="white"/>
<path d="M26.3672 22.207C26.3672 21.6016 26.8672 21.1484 28.2969 21.1484C29.2227 21.1484 30.2852 21.8242 30.2852 21.8242L30.7539 19.5156C30.7539 19.5156 29.3945 19 28.0625 19C25.043 19 23.4844 20.4414 23.4844 22.2695C23.4844 25.5781 27.4648 25.125 27.4648 26.8203C27.4648 27.1133 27.2344 27.7852 25.5742 27.7852C23.9141 27.7852 22.8164 27.1758 22.8164 27.1758L22.3203 29.3945C22.3203 29.3945 23.3867 30 25.4375 30C27.4961 30 30.3555 28.4609 30.3555 26.2461C30.3555 23.5859 26.3672 23.3945 26.3672 22.207Z" fill="white"/>
<path d="M12.2109 24.9453L11.2461 20.1953C11.2461 20.1953 10.8086 19.168 9.67188 19.168C8.53516 19.168 5.23438 19.168 5.23438 19.168C5.23438 19.168 10.8945 20.8398 12.2109 24.9453Z" fill="#FFC107"/>
</svg>
