
<svg class="icon__vector" width="32" height="32" viewBox="0 0 32 32" fill="none" xmlns="http://www.w3.org/2000/svg">
<path d="M9.78127 4L11.4375 9.4375V12.9688H12.8125V9.25L14.4375 4H13.0313L12.1563 7.59375H12.0938L11.1875 4H9.78127ZM16.2188 6.1875C15.6602 6.1875 15.207 6.35156 14.875 6.65625C14.543 6.95703 14.375 7.36328 14.375 7.875V11.3125C14.375 11.875 14.5508 12.3242 14.875 12.6562C15.1992 12.9883 15.6172 13.1562 16.1563 13.1562C16.7149 13.1562 17.1485 12.9766 17.4688 12.6562C17.7852 12.332 17.9375 11.9102 17.9375 11.3438V7.90625C17.9375 7.40234 17.793 6.97656 17.4688 6.65625C17.1445 6.33594 16.7305 6.1875 16.2188 6.1875ZM19 6.34375V11.9062C19 12.3047 19.0742 12.5859 19.2188 12.7812C19.3633 12.9766 19.5899 13.0625 19.875 13.0625C20.1055 13.0625 20.3203 13.0156 20.5625 12.875C20.8086 12.7344 21.0547 12.5195 21.2813 12.25V12.9688H22.5V6.34375H21.2813V11.375C21.168 11.5195 21.0469 11.6562 20.9063 11.75C20.7695 11.8438 20.6524 11.875 20.5625 11.875C20.4492 11.875 20.3633 11.8516 20.3125 11.7812C20.2578 11.7109 20.2188 11.5898 20.2188 11.4375V6.34375H19ZM16.1563 7.34375C16.3203 7.34375 16.4649 7.37891 16.5625 7.46875C16.6641 7.55859 16.6875 7.66797 16.6875 7.8125V11.4375C16.6875 11.6172 16.6602 11.7461 16.5625 11.8438C16.461 11.9453 16.3242 12 16.1563 12C15.9961 12 15.8672 11.9414 15.7813 11.8438C15.6914 11.7422 15.6563 11.6172 15.6563 11.4375V7.8125C15.6563 7.66797 15.6875 7.55859 15.7813 7.46875C15.875 7.37891 16.0039 7.34375 16.1563 7.34375ZM16 14.5312C13.625 14.5273 11.3086 14.5586 9.03127 14.6562C7.44142 14.6562 6.12502 15.957 6.12502 17.5312C6.03127 18.7773 5.99611 20.0312 6.00002 21.2812C5.99611 22.5273 6.02736 23.75 6.12502 25C6.12502 26.5781 7.43752 27.875 9.03127 27.875C11.3086 27.9688 13.625 28.0039 16 28C18.3789 28.0039 20.6953 27.9688 22.9688 27.875C24.5625 27.875 25.875 26.5781 25.875 25C25.9688 23.75 26.0039 22.5273 26 21.2812C26.0039 20.0312 25.9727 18.7773 25.875 17.5312C25.875 15.957 24.5625 14.6562 22.9688 14.6562C20.6953 14.5625 18.3789 14.5273 16 14.5312ZM7.56252 16.5938H11.75C11.8242 16.5938 11.875 16.6445 11.875 16.7188V18C11.875 18.0742 11.8242 18.125 11.75 18.125H10.4688V25.5625C10.4688 25.6367 10.418 25.6875 10.3438 25.6875H8.96877C8.89455 25.6875 8.81252 25.6367 8.81252 25.5625V18.125H7.56252C7.4883 18.125 7.40627 18.0742 7.40627 18V16.7188C7.40627 16.6445 7.4883 16.5938 7.56252 16.5938ZM16.375 16.5938H17.5938C17.668 16.5938 17.75 16.6445 17.75 16.7188V19.2188C17.8516 19.125 17.9531 19.0625 18.0625 19C18.2695 18.8867 18.4766 18.8125 18.6875 18.8125C19.1172 18.8125 19.4258 18.9648 19.6563 19.2812C19.875 19.5859 20 20.0352 20 20.5938V24.2188C20 24.7148 19.8985 25.1055 19.6875 25.375C19.4688 25.6562 19.1524 25.7812 18.75 25.7812C18.4961 25.7812 18.2695 25.7305 18.0625 25.625C17.9531 25.5664 17.8516 25.4961 17.75 25.4062V25.5625C17.75 25.6367 17.668 25.6875 17.5938 25.6875H16.375C16.3008 25.6875 16.25 25.6367 16.25 25.5625V16.7188C16.25 16.6445 16.3008 16.5938 16.375 16.5938ZM22.625 18.7188C23.2188 18.7188 23.6758 18.9219 24 19.2812C24.3203 19.6367 24.5 20.1289 24.5 20.7812V22.4688C24.5 22.543 24.418 22.5938 24.3438 22.5938H22.1563V23.6875C22.1563 24.0859 22.207 24.2383 22.25 24.3125C22.2852 24.3711 22.3711 24.4688 22.5625 24.4688C22.7149 24.4688 22.8203 24.418 22.875 24.3438C22.9024 24.3047 22.9688 24.1641 22.9688 23.6875V23.2188C22.9688 23.1445 23.0195 23.0938 23.0938 23.0938H24.3438C24.418 23.0938 24.4688 23.1445 24.4688 23.2188V23.7188C24.4688 24.4219 24.3242 24.9492 24 25.3125C23.6719 25.6797 23.1758 25.875 22.5313 25.875C21.9492 25.875 21.461 25.6719 21.125 25.2812C20.793 24.8984 20.625 24.3789 20.625 23.7188V20.7812C20.625 20.1797 20.8203 19.6953 21.1875 19.3125C21.5547 18.9297 22.043 18.7188 22.625 18.7188ZM11.7188 18.9062H12.9375C13.0117 18.9062 13.0938 18.957 13.0938 19.0312V24.0312C13.0938 24.1953 13.1055 24.2578 13.125 24.2812C13.1328 24.293 13.1485 24.3438 13.25 24.3438C13.2852 24.3438 13.3867 24.3164 13.5313 24.2188C13.6485 24.1406 13.75 24.0508 13.8438 23.9375V19.0312C13.8438 18.957 13.8945 18.9062 13.9688 18.9062H15.1875C15.2617 18.9062 15.3125 18.957 15.3125 19.0312V25.5625H15.3438C15.3438 25.6367 15.2617 25.6875 15.1875 25.6875H13.9688C13.8945 25.6875 13.8438 25.6367 13.8438 25.5625V25.1875C13.6836 25.3438 13.5117 25.4688 13.3438 25.5625C13.0781 25.7148 12.8203 25.7812 12.5625 25.7812C12.2383 25.7812 12.0117 25.668 11.8438 25.4375C11.6836 25.2188 11.5938 24.9141 11.5938 24.5V19.0312C11.5938 18.957 11.6445 18.9062 11.7188 18.9062ZM18.1875 20.125C18.1055 20.1094 18.0078 20.1367 17.9063 20.1875C17.8477 20.2148 17.8086 20.2539 17.75 20.3125V24.2812C17.8242 24.3555 17.8711 24.4023 17.9375 24.4375C18.0117 24.4727 18.1055 24.4688 18.1875 24.4688C18.3438 24.4688 18.3906 24.4258 18.4063 24.4062C18.4453 24.3594 18.4688 24.25 18.4688 24.0312V20.6562C18.4688 20.4688 18.4414 20.3398 18.375 20.25C18.332 20.1914 18.2695 20.1406 18.1875 20.125ZM22.5625 20.1562C22.418 20.1562 22.3086 20.1992 22.25 20.2812C22.207 20.3398 22.1563 20.4766 22.1563 20.7812V21.3125H22.9688V20.7812C22.9688 20.4805 22.8906 20.3477 22.8438 20.2812C22.7891 20.2031 22.7031 20.1562 22.5625 20.1562Z"/>
</svg>
