<svg width="48" height="48" viewBox="0 0 48 48" fill="none" xmlns="http://www.w3.org/2000/svg">
<g clip-path="url(#clip0)">
<path d="M18.6992 13.7656L18.7031 13.7695C18.8086 13.3242 19.1875 13 19.6602 13H33.1328C33.1484 13 33.1641 12.9922 33.1836 12.9922C32.8945 8.21484 28.8867 6 25.3516 6H11.8789C11.4023 6 11.0273 6.33594 10.9219 6.77734L10.918 6.77344L5.02734 33.8125H5.04297C5.02734 33.8789 5.00391 33.9375 5.00391 34.0078C5.00391 34.5625 5.44922 35 6.00391 35H14.0742L18.6992 13.7656Z" fill="#1565C0"/>
<path d="M33.1836 12.9922C33.2344 13.8711 33.1797 14.8242 32.9531 15.875C31.6719 21.8711 27.043 24.9922 21.3203 24.9922C21.3203 24.9922 17.8477 24.9922 17.0078 24.9922C16.4844 24.9922 16.2383 25.2969 16.125 25.5312L14.3867 33.5781L14.082 35.0078H14.0742L12.8125 40.8047H12.8242C12.8125 40.8711 12.7852 40.9297 12.7852 41C12.7852 41.5547 13.2344 42 13.7852 42H21.1172L21.1328 41.9883C21.6055 41.9844 21.9805 41.6445 22.0781 41.2031L22.0938 41.1875L23.9062 32.7695C23.9062 32.7695 24.0312 31.9688 24.8789 31.9688C25.7227 31.9688 29.0547 31.9688 29.0547 31.9688C34.7773 31.9688 39.457 28.8633 40.7383 22.8672C42.1797 16.1055 37.3594 13.0195 33.1836 12.9922Z" fill="#039BE5"/>
<path d="M19.6602 13.0001C19.1875 13.0001 18.8086 13.3243 18.7031 13.7696L18.6992 13.7657L16.125 25.5314C16.2383 25.297 16.4844 24.9923 17.0039 24.9923C17.8477 24.9923 21.2383 24.9923 21.2383 24.9923C26.9648 24.9923 31.6719 21.8712 32.9531 15.879C33.1797 14.8243 33.2344 13.8712 33.1836 12.9962C33.1641 12.9923 33.1484 13.0001 33.1328 13.0001H19.6602Z" fill="#283593"/>
</g>
<defs>
<clipPath id="clip0">
<rect width="48" height="48" fill="white"/>
</clipPath>
</defs>
</svg>
