<svg class="icon__vector" fill="white" width="32" height="32" viewBox="0 0 32 32" xmlns="http://www.w3.org/2000/svg">
<path fill-rule="evenodd" clip-rule="evenodd" d="M25 11H7V25H25V11ZM5 9V27H27V9H5Z" />
<path fill-rule="evenodd" clip-rule="evenodd" d="M9.82843 7L7.82843 9H24.1716L22.1716 7H9.82843ZM23 5H9L5 9H27L23 5Z" />
<path fill-rule="evenodd" clip-rule="evenodd" d="M12 13V15H20V13H12Z" />
<path fill-rule="evenodd" clip-rule="evenodd" d="M15 9H17V7H15V9Z" />
<path fill-rule="evenodd" clip-rule="evenodd" d="M18 22V24H24V22H18Z" />
<path fill-rule="evenodd" clip-rule="evenodd" d="M18 19L19 18L20 19V21H18V19Z" />
<path fill-rule="evenodd" clip-rule="evenodd" d="M22 19L23 18L24 19V21H22V19Z" />
</svg>
