<svg class="icon__vector" fill="white" width="32" height="32" viewBox="0 0 32 32" xmlns="http://www.w3.org/2000/svg">
<path fill-rule="evenodd" clip-rule="evenodd" d="M16 21C17.6569 21 19 19.6569 19 18C19 16.3431 17.6569 15 16 15C14.3431 15 13 16.3431 13 18C13 19.6569 14.3431 21 16 21ZM16 23C18.7614 23 21 20.7614 21 18C21 15.2386 18.7614 13 16 13C13.2386 13 11 15.2386 11 18C11 20.7614 13.2386 23 16 23Z" />
<path d="M28.7005 9L27.9952 5L5.31006 9H16.8275L26.3729 7.31689L26.6696 9H28.7005Z" />
<path fill-rule="evenodd" clip-rule="evenodd" d="M2 10H30V26H2V10ZM4.5 15C5.88071 15 7 13.8807 7 12.5C7 12.3288 6.98278 12.1616 6.94999 12H25.05C25.0172 12.1616 25 12.3288 25 12.5C25 13.8807 26.1193 15 27.5 15C27.6712 15 27.8384 14.9828 28 14.95V21.05C27.8384 21.0172 27.6712 21 27.5 21C26.1193 21 25 22.1193 25 23.5C25 23.6712 25.0172 23.8384 25.05 24H6.94999C6.98278 23.8384 7 23.6712 7 23.5C7 22.1193 5.88071 21 4.5 21C4.32877 21 4.16156 21.0172 4 21.05V14.95C4.16156 14.9828 4.32877 15 4.5 15Z" />
</svg>
