<svg class="icon__vector" width="32" height="32" viewBox="0 0 32 32" xmlns="http://www.w3.org/2000/svg">
<path fill-rule="evenodd" clip-rule="evenodd" d="M5 8H32V9C32 11.051 30.9936 13.2767 29.5007 14.9731C28.0051 16.6727 25.8778 18 23.5 18H22V19H25C25.8252 19 26.5668 19.4025 27.0821 19.9179C27.5975 20.4332 28 21.1748 28 22V24H6V22C6 21.1748 6.40255 20.4332 6.91789 19.9179C7.43324 19.4025 8.17477 19 9 19H12V18H5V16H3C2.17477 16 1.43324 15.5975 0.917893 15.0821C0.402547 14.5668 0 13.8252 0 13V10H5V8ZM5 12H2V13C2 13.1748 2.09745 13.4332 2.33211 13.6679C2.56676 13.9025 2.82523 14 3 14H5V12ZM7 16H23.5C25.1222 16 26.7449 15.0773 27.9993 13.6519C28.9789 12.5387 29.6467 11.2155 29.8938 10H7V16ZM14 18V21H9C8.82523 21 8.56676 21.0975 8.33211 21.3321C8.09745 21.5668 8 21.8252 8 22H26C26 21.8252 25.9025 21.5668 25.6679 21.3321C25.4332 21.0975 25.1748 21 25 21H20V18H14Z" />
</svg>
