<svg class="icon__vector" width="32" height="32" viewBox="0 0 32 32" xmlns="http://www.w3.org/2000/svg">
<path d="M25 4L23 4L23 28H25L25 4ZM9 4L7 4L7 28H9L9 4Z" />
<path d="M15 7C15 8.10457 14.1046 9 13 9C11.8954 9 11 8.10457 11 7C11 5.89543 11.8954 5 13 5C14.1046 5 15 5.89543 15 7Z" />
<path d="M21 10C21 11.1046 20.1046 12 19 12C17.8954 12 17 11.1046 17 10C17 8.89543 17.8954 8 19 8C20.1046 8 21 8.89543 21 10Z" />
<path d="M15 13C15 14.1046 14.1046 15 13 15C11.8954 15 11 14.1046 11 13C11 11.8954 11.8954 11 13 11C14.1046 11 15 11.8954 15 13Z" />
<path d="M21 16C21 17.1046 20.1046 18 19 18C17.8954 18 17 17.1046 17 16C17 14.8954 17.8954 14 19 14C20.1046 14 21 14.8954 21 16Z" />
<path d="M15 19C15 20.1046 14.1046 21 13 21C11.8954 21 11 20.1046 11 19C11 17.8954 11.8954 17 13 17C14.1046 17 15 17.8954 15 19Z" />
<path d="M15 25C15 26.1046 14.1046 27 13 27C11.8954 27 11 26.1046 11 25C11 23.8954 11.8954 23 13 23C14.1046 23 15 23.8954 15 25Z" />
<path d="M21 22C21 23.1046 20.1046 24 19 24C17.8954 24 17 23.1046 17 22C17 20.8954 17.8954 20 19 20C20.1046 20 21 20.8954 21 22Z" />
</svg>
