<svg class="icon__vector" fill="#00000080" width="32" height="32" viewBox="0 0 32 32" xmlns="http://www.w3.org/2000/svg">
<path d="M20 26H12C12 23.7909 13.7909 22 16 22C18.2091 22 20 23.7909 20 26Z" />
<path d="M7 4H25V6H7V4Z" />
<path d="M7 26C14.0294 26 17.9706 26 25 26V28H7V26Z" />
<path d="M19.874 11C19.4299 12.7252 17.8638 14 16 14C14.1362 14 12.57 12.7252 12.126 11H19.874Z" />
<path fill-rule="evenodd" clip-rule="evenodd" d="M11 10V6H9V10C9 12.5463 10.3596 14.7751 12.3924 16C10.3596 17.2249 9 19.4537 9 22V26C9 26 9.60948 26 10 26C10.3905 26 11 26 11 26L11 22C11 19.2386 13.2386 17 16 17C18.7614 17 21 19.2386 21 22L21 26H23V22C23 19.4537 21.6404 17.2249 19.6076 16C21.6404 14.7751 23 12.5463 23 10V6H21V10C21 12.7614 18.7614 15 16 15C13.2386 15 11 12.7614 11 10Z" />
</svg>
