<svg width="48" height="48" viewBox="0 0 48 48" fill="none" xmlns="http://www.w3.org/2000/svg">
<g clip-path="url(#clip0)">
<path d="M45 35C45 37.2109 43.2109 39 41 39H7C4.78906 39 3 37.2109 3 35V13C3 10.7891 4.78906 9 7 9H41C43.2109 9 45 10.7891 45 13V35Z" fill="#1976D2"/>
<path d="M22.2539 20L20.1406 24.6836L18.0391 20H15.3438V26.7266L12.3398 20H10.0664L7 26.9805H8.81641L9.48438 25.4219H12.918L13.6016 26.9805H17.0664V21.7969L19.3633 26.9805H20.9258L23.2773 21.8867V26.9805H25V20H22.2539ZM10.1367 23.9141L11.1602 21.4766L12.2266 23.9141H10.1367Z" fill="white"/>
<path d="M37.8828 23.4141L41 20.0195H38.7812L36.7891 22.1836L34.8594 20H28V26.9805H34.6367L36.7266 24.6719L38.7656 27H40.9766L37.8828 23.4141ZM33.7266 25.5156H29.7188V24.1367H33.5547V22.8125H29.7188V21.5039L33.9492 21.5156L35.6445 23.4141L33.7266 25.5156Z" fill="white"/>
</g>
<defs>
<clipPath id="clip0">
<rect width="48" height="48" fill="white"/>
</clipPath>
</defs>
</svg>
