<svg class="icon__vector" width="32" height="32" viewBox="0 0 32 32" xmlns="http://www.w3.org/2000/svg">
<path fill-rule="evenodd" clip-rule="evenodd" d="M7.19513 9.00085C7.14168 9.00017 7.07869 9.00011 7 9.00011H5C4.44772 9.00011 4 8.55239 4 8.00011C4 7.44782 4.44772 7.00011 5 7.00011H7C7.01488 7.00011 7.03027 7.00008 7.04613 7.00006C7.25249 6.99972 7.53753 6.99925 7.79195 7.05281C8.14981 7.12815 8.48196 7.30938 8.7375 7.65011C8.94323 7.92442 9.06173 8.2573 9.15166 8.55164C9.2452 8.85776 9.34415 9.25357 9.46341 9.73064L11.4701 17.7576C11.5811 18.2013 11.6593 18.5127 11.7323 18.7498C11.766 18.8592 11.7942 18.9378 11.818 18.9949C11.8602 18.9978 11.9193 19.0001 12 19.0001H23C23.1306 19.0001 23.1913 18.9776 23.2125 18.9679C23.2311 18.9593 23.2499 18.9472 23.276 18.9151C23.3509 18.8234 23.4347 18.6382 23.5299 18.2576C23.8559 16.9533 24.64 14.0361 25.1919 12.0001H11.5L11 10.0001H27.8092L27.4648 11.2632C26.9638 13.1001 25.867 17.1552 25.4701 18.7426C25.367 19.1552 25.2008 19.72 24.8253 20.18C24.3971 20.7044 23.7791 21.0001 23 21.0001H12C11.7282 21.0001 11.3999 20.9856 11.084 20.8787C10.7192 20.7551 10.4305 20.5309 10.215 20.2191C10.027 19.9472 9.91098 19.6307 9.821 19.3387C9.73017 19.0439 9.63924 18.6802 9.5359 18.2668L7.52986 10.2426C7.40214 9.73177 7.31554 9.38671 7.23896 9.13608C7.22255 9.08236 7.20791 9.03771 7.19513 9.00085Z" />
<path fill-rule="evenodd" clip-rule="evenodd" d="M13 21.0001C11.3431 21.0001 10 22.3433 10 24.0001C10 25.657 11.3431 27.0001 13 27.0001C14.6569 27.0001 16 25.657 16 24.0001C16 22.3433 14.6569 21.0001 13 21.0001ZM12 24.0001C12 24.5524 12.4477 25.0001 13 25.0001C13.5523 25.0001 14 24.5524 14 24.0001C14 23.4478 13.5523 23.0001 13 23.0001C12.4477 23.0001 12 23.4478 12 24.0001Z" />
<path fill-rule="evenodd" clip-rule="evenodd" d="M22 21.0001C20.3431 21.0001 19 22.3433 19 24.0001C19 25.657 20.3431 27.0001 22 27.0001C23.6569 27.0001 25 25.657 25 24.0001C25 22.3433 23.6569 21.0001 22 21.0001ZM21 24.0001C21 24.5524 21.4477 25.0001 22 25.0001C22.5523 25.0001 23 24.5524 23 24.0001C23 23.4478 22.5523 23.0001 22 23.0001C21.4477 23.0001 21 23.4478 21 24.0001Z" />
</svg>
