<svg class="icon__vector" width="32" height="32" viewBox="0 0 32 32" xmlns="http://www.w3.org/2000/svg">
<path fill-rule="evenodd" clip-rule="evenodd" d="M12 4H24V6H23V11L19 14V15H25V14H27V22H25V21H17.0388L18.82 25.0077L16.9923 25.82L14.8501 21H14C13.6914 21 13 21.4021 13 22.5C13 22.9472 13.1141 23.1184 13.3289 23.4406L13.3321 23.4453C13.6153 23.8701 14 24.4494 14 25.5C14 26.7859 12.9097 27.3903 12.2137 27.6409C11.4442 27.9179 10.57 28 10 28H9.58579L9.29289 27.7071L10 27C9.29289 27.7071 9.29325 27.7075 9.29289 27.7071L9.28994 27.7041L9.28662 27.7008L9.27889 27.6929L9.25923 27.6722C9.24433 27.6563 9.22589 27.6361 9.20445 27.6116C9.1616 27.5627 9.1066 27.4963 9.04375 27.4125C8.91815 27.245 8.76033 27.0067 8.60557 26.6972C8.29443 26.0749 8 25.1728 8 24C8 22.9248 8.13902 22.0401 8.30515 21.4053L7 20.5352V15H17V14L13 11V6H12V4ZM15 6V10L18 12.25L21 10V6H15ZM10.4877 25.9755C10.8348 25.9424 11.2175 25.8739 11.5363 25.7591C11.7762 25.6727 11.9128 25.5838 11.9759 25.5226C11.9884 25.5105 11.9958 25.5015 12 25.496C11.9993 25.0517 11.8852 24.8806 11.6711 24.5594L11.6679 24.5547C11.3847 24.1299 11 23.5506 11 22.5C11 20.5979 12.3086 19 14 19H25V17H9V19.4648L10.7892 20.6576L10.3944 21.4472C10.3142 21.6076 10 22.512 10 24C10 24.8272 10.2056 25.4251 10.3944 25.8028C10.4262 25.8664 10.4577 25.9239 10.4877 25.9755ZM6 16V20H4V16H6Z" />
</svg>
