<svg class="icon__vector" fill="white" width="32" height="32" viewBox="0 0 32 32" xmlns="http://www.w3.org/2000/svg">
<path d="M15 16L15 4L17 4V16H15Z" />
<path d="M12.2452 13.6595L6.80762 8.22183L8.22183 6.80762L13.6595 12.2452L12.2452 13.6595Z" />
<path d="M18.9501 11.6356L23.7781 6.80761L25.1924 8.22182L20.3643 13.0498L18.9501 11.6356Z" />
<path d="M16 20C18.2091 20 20 18.2091 20 16C20 15.6547 19.9562 15.3196 19.874 15H25V17H21.917C21.7641 17.9116 21.4056 18.7536 20.8908 19.4765L25.1924 23.7782L23.7782 25.1924L19.4766 20.8907C18.7536 21.4056 17.9117 21.7641 17 21.917V28H15V21.917C14.0883 21.7641 13.2464 21.4056 12.5235 20.8907L10.2169 23.1973L8.80273 21.7831L11.1093 19.4765C10.5944 18.7536 10.2359 17.9117 10.083 17H4V15H12.126C12.0438 15.3196 12 15.6547 12 16C12 18.2091 13.7909 20 16 20Z" />
</svg>
