<svg class="icon__vector" width="32" height="32" viewBox="0 0 32 32" xmlns="http://www.w3.org/2000/svg">
<path d="M12 2H14V6H12V2Z" />
<path d="M16 3H18V6H16V3Z" />
<path fill-rule="evenodd" clip-rule="evenodd" d="M24 20V25C24 26.6569 22.6569 28 21 28H9C7.34315 28 6 26.6569 6 25V7H24V11H26C27.6569 11 29 12.3431 29 14V17C29 18.6569 27.6569 20 26 20H24ZM8 9H22V25C22 25.5523 21.5523 26 21 26H9C8.44772 26 8 25.5523 8 25V9ZM24 13V18H26C26.5523 18 27 17.5523 27 17V14C27 13.4477 26.5523 13 26 13H24Z" />
</svg>
